<?xml version="1.0" encoding="UTF-8"?>
<svg width="14px" height="11px" viewBox="0 0 14 11" version="1.1" xmlns="http://www.w3.org/2000/svg" xmlns:xlink="http://www.w3.org/1999/xlink">
    <title>Camera</title>
    <g id="Page-1" stroke="none" stroke-width="1" fill="none" fill-rule="evenodd">
        <g id="A0" transform="translate(-797.000000, -1447.000000)" fill="#000000">
            <g id="Camera" transform="translate(797.000000, 1447.000000)">
                <path d="M3,1 C3,0.44772 3.44772,0 4,0 L10,0 C10.5523,0 11,0.44772 11,1 L11,2 C11,2.55229 10.5523,3 10,3 L4,3 C3.44772,3 3,2.55228 3,2 L3,1 Z" id="Path" fill-rule="nonzero"></path>
                <path d="M1,2 C0.44772,2 0,2.44772 0,3 L0,10 C0,10.5523 0.44772,11 1,11 L13,11 C13.5523,11 14,10.5523 14,10 L14,3 C14,2.44772 13.5523,2 13,2 L1,2 Z M9,6 C9,7.1046 8.1046,8 7,8 C5.8954,8 5,7.1046 5,6 C5,4.8954 5.8954,4 7,4 C8.1046,4 9,4.8954 9,6 Z M10,6 C10,7.6569 8.6569,9 7,9 C5.3431,9 4,7.6569 4,6 C4,4.3431 5.3431,3 7,3 C8.6569,3 10,4.3431 10,6 Z" id="Shape"></path>
            </g>
        </g>
    </g>
</svg>