<?xml version="1.0" encoding="UTF-8"?>
<svg width="20px" height="5px" viewBox="0 0 20 5" version="1.1" xmlns="http://www.w3.org/2000/svg" xmlns:xlink="http://www.w3.org/1999/xlink">
    <title>Dope sheet</title>
    <defs>
        <path d="M2.75,4.5 C3.85457,4.5 4.75,3.6046 4.75,2.5 C4.75,1.3954 3.85457,0.5 2.75,0.5 C1.64543,0.5 0.75,1.3954 0.75,2.5 C0.75,3.6046 1.64543,4.5 2.75,4.5 Z M2.75,3.5 C3.30228,3.5 3.75,3.0523 3.75,2.5 C3.75,1.9477 3.30228,1.5 2.75,1.5 C2.19772,1.5 1.75,1.9477 1.75,2.5 C1.75,3.0523 2.19772,3.5 2.75,3.5 Z" id="path-1"></path>
        <path d="M2.25,4.5 C3.3546,4.5 4.25,3.6046 4.25,2.5 C4.25,1.3954 3.3546,0.5 2.25,0.5 C1.1454,0.5 0.25,1.3954 0.25,2.5 C0.25,3.6046 1.1454,4.5 2.25,4.5 Z M2.25,3.5 C2.8023,3.5 3.25,3.0523 3.25,2.5 C3.25,1.9477 2.8023,1.5 2.25,1.5 C1.6977,1.5 1.25,1.9477 1.25,2.5 C1.25,3.0523 1.6977,3.5 2.25,3.5 Z" id="path-3"></path>
        <path d="M2.25,4.5 C3.3546,4.5 4.25,3.6046 4.25,2.5 C4.25,1.3954 3.3546,0.5 2.25,0.5 C1.1454,0.5 0.25,1.3954 0.25,2.5 C0.25,3.6046 1.1454,4.5 2.25,4.5 Z M2.25,3.5 C2.8023,3.5 3.25,3.0523 3.25,2.5 C3.25,1.9477 2.8023,1.5 2.25,1.5 C1.6977,1.5 1.25,1.9477 1.25,2.5 C1.25,3.0523 1.6977,3.5 2.25,3.5 Z" id="path-5"></path>
    </defs>
    <g id="Page-1" stroke="none" stroke-width="1" fill="none" fill-rule="evenodd">
        <g id="A0" transform="translate(-794.000000, -1451.000000)">
            <g id="Dope-sheet" transform="translate(794.000000, 1451.000000)">
                <line x1="4.25" y1="2.5" x2="9.25" y2="2.5" id="Path" stroke="#000000"></line>
                <line x1="11.25" y1="2.5" x2="16.25" y2="2.5" id="Path" stroke="#000000"></line>
                <path d="M2.75,4.5 C3.85457,4.5 4.75,3.6046 4.75,2.5 C4.75,1.3954 3.85457,0.5 2.75,0.5 C1.64543,0.5 0.75,1.3954 0.75,2.5 C0.75,3.6046 1.64543,4.5 2.75,4.5 Z M2.75,3.5 C3.30228,3.5 3.75,3.0523 3.75,2.5 C3.75,1.9477 3.30228,1.5 2.75,1.5 C2.19772,1.5 1.75,1.9477 1.75,2.5 C1.75,3.0523 2.19772,3.5 2.75,3.5 Z" id="Shape" fill="#398BFF"></path>
                <g id="Clipped">
                    <mask id="mask-2" fill="white">
                        <use xlink:href="#path-1"></use>
                    </mask>
                    <g id="Shape"></g>
                    <path d="M3.75,2.5 C3.75,3.0523 3.30228,3.5 2.75,3.5 L2.75,5.5 C4.40685,5.5 5.75,4.1569 5.75,2.5 L3.75,2.5 Z M2.75,1.5 C3.30228,1.5 3.75,1.9477 3.75,2.5 L5.75,2.5 C5.75,0.8431 4.40685,-0.5 2.75,-0.5 L2.75,1.5 Z M1.75,2.5 C1.75,1.9477 2.19772,1.5 2.75,1.5 L2.75,-0.5 C1.09315,-0.5 -0.25,0.8431 -0.25,2.5 L1.75,2.5 Z M2.75,3.5 C2.19772,3.5 1.75,3.0523 1.75,2.5 L-0.25,2.5 C-0.25,4.1569 1.09315,5.5 2.75,5.5 L2.75,3.5 Z M2.75,2.5 L2.75,4.5 C3.85457,4.5 4.75,3.6046 4.75,2.5 L2.75,2.5 Z M2.75,2.5 L4.75,2.5 C4.75,1.3954 3.85457,0.5 2.75,0.5 L2.75,2.5 Z M2.75,2.5 L2.75,0.5 C1.64543,0.5 0.75,1.3954 0.75,2.5 L2.75,2.5 Z M2.75,2.5 L0.75,2.5 C0.75,3.6046 1.64543,4.5 2.75,4.5 L2.75,2.5 Z" id="Shape" fill="#000000" fill-rule="nonzero" mask="url(#mask-2)"></path>
                </g>
                <path d="M10.25,4.5 C11.3546,4.5 12.25,3.6046 12.25,2.5 C12.25,1.3954 11.3546,0.5 10.25,0.5 C9.1454,0.5 8.25,1.3954 8.25,2.5 C8.25,3.6046 9.1454,4.5 10.25,4.5 Z M10.25,3.5 C10.8023,3.5 11.25,3.0523 11.25,2.5 C11.25,1.9477 10.8023,1.5 10.25,1.5 C9.6977,1.5 9.25,1.9477 9.25,2.5 C9.25,3.0523 9.6977,3.5 10.25,3.5 Z" id="Shape" fill="#398BFF"></path>
                <g id="Clipped" transform="translate(8.000000, 0.000000)">
                    <mask id="mask-4" fill="white">
                        <use xlink:href="#path-3"></use>
                    </mask>
                    <g id="Shape"></g>
                    <path d="M3.25,2.5 C3.25,3.0523 2.8023,3.5 2.25,3.5 L2.25,5.5 C3.9069,5.5 5.25,4.1569 5.25,2.5 L3.25,2.5 Z M2.25,1.5 C2.8023,1.5 3.25,1.9477 3.25,2.5 L5.25,2.5 C5.25,0.8431 3.9069,-0.5 2.25,-0.5 L2.25,1.5 Z M1.25,2.5 C1.25,1.9477 1.6977,1.5 2.25,1.5 L2.25,-0.5 C0.5931,-0.5 -0.75,0.8431 -0.75,2.5 L1.25,2.5 Z M2.25,3.5 C1.6977,3.5 1.25,3.0523 1.25,2.5 L-0.75,2.5 C-0.75,4.1569 0.5931,5.5 2.25,5.5 L2.25,3.5 Z M2.25,2.5 L2.25,4.5 C3.3546,4.5 4.25,3.6046 4.25,2.5 L2.25,2.5 Z M2.25,2.5 L4.25,2.5 C4.25,1.3954 3.3546,0.5 2.25,0.5 L2.25,2.5 Z M2.25,2.5 L2.25,0.5 C1.1454,0.5 0.25,1.3954 0.25,2.5 L2.25,2.5 Z M2.25,2.5 L0.25,2.5 C0.25,3.6046 1.1454,4.5 2.25,4.5 L2.25,2.5 Z" id="Shape" fill="#000000" fill-rule="nonzero" mask="url(#mask-4)"></path>
                </g>
                <path d="M17.25,4.5 C18.3546,4.5 19.25,3.6046 19.25,2.5 C19.25,1.3954 18.3546,0.5 17.25,0.5 C16.1454,0.5 15.25,1.3954 15.25,2.5 C15.25,3.6046 16.1454,4.5 17.25,4.5 Z M17.25,3.5 C17.8023,3.5 18.25,3.0523 18.25,2.5 C18.25,1.9477 17.8023,1.5 17.25,1.5 C16.6977,1.5 16.25,1.9477 16.25,2.5 C16.25,3.0523 16.6977,3.5 17.25,3.5 Z" id="Shape" fill="#398BFF"></path>
                <g id="Clipped" transform="translate(15.000000, 0.000000)">
                    <mask id="mask-6" fill="white">
                        <use xlink:href="#path-5"></use>
                    </mask>
                    <g id="Shape"></g>
                    <path d="M3.25,2.5 C3.25,3.0523 2.8023,3.5 2.25,3.5 L2.25,5.5 C3.9069,5.5 5.25,4.1569 5.25,2.5 L3.25,2.5 Z M2.25,1.5 C2.8023,1.5 3.25,1.9477 3.25,2.5 L5.25,2.5 C5.25,0.8431 3.9069,-0.5 2.25,-0.5 L2.25,1.5 Z M1.25,2.5 C1.25,1.9477 1.6977,1.5 2.25,1.5 L2.25,-0.5 C0.5931,-0.5 -0.75,0.8431 -0.75,2.5 L1.25,2.5 Z M2.25,3.5 C1.6977,3.5 1.25,3.0523 1.25,2.5 L-0.75,2.5 C-0.75,4.1569 0.5931,5.5 2.25,5.5 L2.25,3.5 Z M2.25,2.5 L2.25,4.5 C3.3546,4.5 4.25,3.6046 4.25,2.5 L2.25,2.5 Z M2.25,2.5 L4.25,2.5 C4.25,1.3954 3.3546,0.5 2.25,0.5 L2.25,2.5 Z M2.25,2.5 L2.25,0.5 C1.1454,0.5 0.25,1.3954 0.25,2.5 L2.25,2.5 Z M2.25,2.5 L0.25,2.5 C0.25,3.6046 1.1454,4.5 2.25,4.5 L2.25,2.5 Z" id="Shape" fill="#000000" fill-rule="nonzero" mask="url(#mask-6)"></path>
                </g>
            </g>
        </g>
    </g>
</svg>