<?xml version="1.0" encoding="UTF-8"?>
<svg width="24px" height="24px" viewBox="0 0 24 24" version="1.1" xmlns="http://www.w3.org/2000/svg" xmlns:xlink="http://www.w3.org/1999/xlink">
    <title>Dope sheet_Square</title>
    <defs>
        <path d="M2.75,4.5 C3.85457,4.5 4.75,3.6046 4.75,2.5 C4.75,1.3954 3.85457,0.5 2.75,0.5 C1.64543,0.5 0.75,1.3954 0.75,2.5 C0.75,3.6046 1.64543,4.5 2.75,4.5 Z M2.75,3.5 C3.30228,3.5 3.75,3.0523 3.75,2.5 C3.75,1.9477 3.30228,1.5 2.75,1.5 C2.19772,1.5 1.75,1.9477 1.75,2.5 C1.75,3.0523 2.19772,3.5 2.75,3.5 Z" id="path-1"></path>
        <path d="M2.25,4.5 C3.3546,4.5 4.25,3.6046 4.25,2.5 C4.25,1.3954 3.3546,0.5 2.25,0.5 C1.1454,0.5 0.25,1.3954 0.25,2.5 C0.25,3.6046 1.1454,4.5 2.25,4.5 Z M2.25,3.5 C2.8023,3.5 3.25,3.0523 3.25,2.5 C3.25,1.9477 2.8023,1.5 2.25,1.5 C1.6977,1.5 1.25,1.9477 1.25,2.5 C1.25,3.0523 1.6977,3.5 2.25,3.5 Z" id="path-3"></path>
        <path d="M2.25,4.5 C3.3546,4.5 4.25,3.6046 4.25,2.5 C4.25,1.3954 3.3546,0.5 2.25,0.5 C1.1454,0.5 0.25,1.3954 0.25,2.5 C0.25,3.6046 1.1454,4.5 2.25,4.5 Z M2.25,3.5 C2.8023,3.5 3.25,3.0523 3.25,2.5 C3.25,1.9477 2.8023,1.5 2.25,1.5 C1.6977,1.5 1.25,1.9477 1.25,2.5 C1.25,3.0523 1.6977,3.5 2.25,3.5 Z" id="path-5"></path>
    </defs>
    <g id="Page-1" stroke="none" stroke-width="1" fill="none" fill-rule="evenodd">
        <g id="A0" transform="translate(-792.000000, -1441.000000)">
            <g id="Dope-sheet_Square" transform="translate(792.000000, 1441.000000)">
                <rect id="Rectangle" fill="#3785F7" fill-rule="nonzero" x="0" y="0" width="24" height="24" rx="4"></rect>
                <line x1="6.25" y1="12.5" x2="11.25" y2="12.5" id="Path" stroke="#FFFFFF"></line>
                <line x1="13.25" y1="12.5" x2="18.25" y2="12.5" id="Path" stroke="#FFFFFF"></line>
                <path d="M4.75,14.5 C5.85457,14.5 6.75,13.6046 6.75,12.5 C6.75,11.3954 5.85457,10.5 4.75,10.5 C3.64543,10.5 2.75,11.3954 2.75,12.5 C2.75,13.6046 3.64543,14.5 4.75,14.5 Z M4.75,13.5 C5.30228,13.5 5.75,13.0523 5.75,12.5 C5.75,11.9477 5.30228,11.5 4.75,11.5 C4.19772,11.5 3.75,11.9477 3.75,12.5 C3.75,13.0523 4.19772,13.5 4.75,13.5 Z" id="Shape" fill="#3785F7"></path>
                <g id="Clipped" transform="translate(2.000000, 10.000000)">
                    <mask id="mask-2" fill="white">
                        <use xlink:href="#path-1"></use>
                    </mask>
                    <g id="Shape"></g>
                    <path d="M3.75,2.5 C3.75,3.0523 3.30228,3.5 2.75,3.5 L2.75,5.5 C4.40685,5.5 5.75,4.1569 5.75,2.5 L3.75,2.5 Z M2.75,1.5 C3.30228,1.5 3.75,1.9477 3.75,2.5 L5.75,2.5 C5.75,0.8431 4.40685,-0.5 2.75,-0.5 L2.75,1.5 Z M1.75,2.5 C1.75,1.9477 2.19772,1.5 2.75,1.5 L2.75,-0.5 C1.09315,-0.5 -0.25,0.8431 -0.25,2.5 L1.75,2.5 Z M2.75,3.5 C2.19772,3.5 1.75,3.0523 1.75,2.5 L-0.25,2.5 C-0.25,4.1569 1.09315,5.5 2.75,5.5 L2.75,3.5 Z M2.75,2.5 L2.75,4.5 C3.85457,4.5 4.75,3.6046 4.75,2.5 L2.75,2.5 Z M2.75,2.5 L4.75,2.5 C4.75,1.3954 3.85457,0.5 2.75,0.5 L2.75,2.5 Z M2.75,2.5 L2.75,0.5 C1.64543,0.5 0.75,1.3954 0.75,2.5 L2.75,2.5 Z M2.75,2.5 L0.75,2.5 C0.75,3.6046 1.64543,4.5 2.75,4.5 L2.75,2.5 Z" id="Shape" fill="#FFFFFF" fill-rule="nonzero" mask="url(#mask-2)"></path>
                </g>
                <path d="M12.25,14.5 C13.3546,14.5 14.25,13.6046 14.25,12.5 C14.25,11.3954 13.3546,10.5 12.25,10.5 C11.1454,10.5 10.25,11.3954 10.25,12.5 C10.25,13.6046 11.1454,14.5 12.25,14.5 Z M12.25,13.5 C12.8023,13.5 13.25,13.0523 13.25,12.5 C13.25,11.9477 12.8023,11.5 12.25,11.5 C11.6977,11.5 11.25,11.9477 11.25,12.5 C11.25,13.0523 11.6977,13.5 12.25,13.5 Z" id="Shape" fill="#3785F7"></path>
                <g id="Clipped" transform="translate(10.000000, 10.000000)">
                    <mask id="mask-4" fill="white">
                        <use xlink:href="#path-3"></use>
                    </mask>
                    <g id="Shape"></g>
                    <path d="M3.25,2.5 C3.25,3.0523 2.8023,3.5 2.25,3.5 L2.25,5.5 C3.9069,5.5 5.25,4.1569 5.25,2.5 L3.25,2.5 Z M2.25,1.5 C2.8023,1.5 3.25,1.9477 3.25,2.5 L5.25,2.5 C5.25,0.8431 3.9069,-0.5 2.25,-0.5 L2.25,1.5 Z M1.25,2.5 C1.25,1.9477 1.6977,1.5 2.25,1.5 L2.25,-0.5 C0.5931,-0.5 -0.75,0.8431 -0.75,2.5 L1.25,2.5 Z M2.25,3.5 C1.6977,3.5 1.25,3.0523 1.25,2.5 L-0.75,2.5 C-0.75,4.1569 0.5931,5.5 2.25,5.5 L2.25,3.5 Z M2.25,2.5 L2.25,4.5 C3.3546,4.5 4.25,3.6046 4.25,2.5 L2.25,2.5 Z M2.25,2.5 L4.25,2.5 C4.25,1.3954 3.3546,0.5 2.25,0.5 L2.25,2.5 Z M2.25,2.5 L2.25,0.5 C1.1454,0.5 0.25,1.3954 0.25,2.5 L2.25,2.5 Z M2.25,2.5 L0.25,2.5 C0.25,3.6046 1.1454,4.5 2.25,4.5 L2.25,2.5 Z" id="Shape" fill="#FFFFFF" fill-rule="nonzero" mask="url(#mask-4)"></path>
                </g>
                <path d="M19.25,14.5 C20.3546,14.5 21.25,13.6046 21.25,12.5 C21.25,11.3954 20.3546,10.5 19.25,10.5 C18.1454,10.5 17.25,11.3954 17.25,12.5 C17.25,13.6046 18.1454,14.5 19.25,14.5 Z M19.25,13.5 C19.8023,13.5 20.25,13.0523 20.25,12.5 C20.25,11.9477 19.8023,11.5 19.25,11.5 C18.6977,11.5 18.25,11.9477 18.25,12.5 C18.25,13.0523 18.6977,13.5 19.25,13.5 Z" id="Shape" fill="#3785F7"></path>
                <g id="Clipped" transform="translate(17.000000, 10.000000)">
                    <mask id="mask-6" fill="white">
                        <use xlink:href="#path-5"></use>
                    </mask>
                    <g id="Shape"></g>
                    <path d="M3.25,2.5 C3.25,3.0523 2.8023,3.5 2.25,3.5 L2.25,5.5 C3.9069,5.5 5.25,4.1569 5.25,2.5 L3.25,2.5 Z M2.25,1.5 C2.8023,1.5 3.25,1.9477 3.25,2.5 L5.25,2.5 C5.25,0.8431 3.9069,-0.5 2.25,-0.5 L2.25,1.5 Z M1.25,2.5 C1.25,1.9477 1.6977,1.5 2.25,1.5 L2.25,-0.5 C0.5931,-0.5 -0.75,0.8431 -0.75,2.5 L1.25,2.5 Z M2.25,3.5 C1.6977,3.5 1.25,3.0523 1.25,2.5 L-0.75,2.5 C-0.75,4.1569 0.5931,5.5 2.25,5.5 L2.25,3.5 Z M2.25,2.5 L2.25,4.5 C3.3546,4.5 4.25,3.6046 4.25,2.5 L2.25,2.5 Z M2.25,2.5 L4.25,2.5 C4.25,1.3954 3.3546,0.5 2.25,0.5 L2.25,2.5 Z M2.25,2.5 L2.25,0.5 C1.1454,0.5 0.25,1.3954 0.25,2.5 L2.25,2.5 Z M2.25,2.5 L0.25,2.5 C0.25,3.6046 1.1454,4.5 2.25,4.5 L2.25,2.5 Z" id="Shape" fill="#FFFFFF" fill-rule="nonzero" mask="url(#mask-6)"></path>
                </g>
            </g>
        </g>
    </g>
</svg>