<svg width="24" height="24" viewBox="0 0 24 24" fill="none" xmlns="http://www.w3.org/2000/svg">
<rect width="24" height="24" rx="4" fill="#3785F7"/>
<line x1="6.25" y1="12.5" x2="11.25" y2="12.5" stroke="white"/>
<line x1="13.25" y1="12.5" x2="18.25" y2="12.5" stroke="white"/>
<mask id="path-4-inside-1" fill="white">
<path fill-rule="evenodd" clip-rule="evenodd" d="M4.75 14.5C5.85457 14.5 6.75 13.6046 6.75 12.5C6.75 11.3954 5.85457 10.5 4.75 10.5C3.64543 10.5 2.75 11.3954 2.75 12.5C2.75 13.6046 3.64543 14.5 4.75 14.5ZM4.75 13.5C5.30228 13.5 5.75 13.0523 5.75 12.5C5.75 11.9477 5.30228 11.5 4.75 11.5C4.19772 11.5 3.75 11.9477 3.75 12.5C3.75 13.0523 4.19772 13.5 4.75 13.5Z"/>
</mask>
<path fill-rule="evenodd" clip-rule="evenodd" d="M4.75 14.5C5.85457 14.5 6.75 13.6046 6.75 12.5C6.75 11.3954 5.85457 10.5 4.75 10.5C3.64543 10.5 2.75 11.3954 2.75 12.5C2.75 13.6046 3.64543 14.5 4.75 14.5ZM4.75 13.5C5.30228 13.5 5.75 13.0523 5.75 12.5C5.75 11.9477 5.30228 11.5 4.75 11.5C4.19772 11.5 3.75 11.9477 3.75 12.5C3.75 13.0523 4.19772 13.5 4.75 13.5Z" fill="#3785F7"/>
<path d="M5.75 12.5C5.75 13.0523 5.30228 13.5 4.75 13.5V15.5C6.40685 15.5 7.75 14.1569 7.75 12.5H5.75ZM4.75 11.5C5.30228 11.5 5.75 11.9477 5.75 12.5H7.75C7.75 10.8431 6.40685 9.5 4.75 9.5V11.5ZM3.75 12.5C3.75 11.9477 4.19772 11.5 4.75 11.5V9.5C3.09315 9.5 1.75 10.8431 1.75 12.5H3.75ZM4.75 13.5C4.19772 13.5 3.75 13.0523 3.75 12.5H1.75C1.75 14.1569 3.09315 15.5 4.75 15.5V13.5ZM4.75 12.5V14.5C5.85457 14.5 6.75 13.6046 6.75 12.5H4.75ZM4.75 12.5H6.75C6.75 11.3954 5.85457 10.5 4.75 10.5V12.5ZM4.75 12.5V10.5C3.64543 10.5 2.75 11.3954 2.75 12.5H4.75ZM4.75 12.5H2.75C2.75 13.6046 3.64543 14.5 4.75 14.5V12.5Z" fill="white" mask="url(#path-4-inside-1)"/>
<mask id="path-6-inside-2" fill="white">
<path fill-rule="evenodd" clip-rule="evenodd" d="M12.25 14.5C13.3546 14.5 14.25 13.6046 14.25 12.5C14.25 11.3954 13.3546 10.5 12.25 10.5C11.1454 10.5 10.25 11.3954 10.25 12.5C10.25 13.6046 11.1454 14.5 12.25 14.5ZM12.25 13.5C12.8023 13.5 13.25 13.0523 13.25 12.5C13.25 11.9477 12.8023 11.5 12.25 11.5C11.6977 11.5 11.25 11.9477 11.25 12.5C11.25 13.0523 11.6977 13.5 12.25 13.5Z"/>
</mask>
<path fill-rule="evenodd" clip-rule="evenodd" d="M12.25 14.5C13.3546 14.5 14.25 13.6046 14.25 12.5C14.25 11.3954 13.3546 10.5 12.25 10.5C11.1454 10.5 10.25 11.3954 10.25 12.5C10.25 13.6046 11.1454 14.5 12.25 14.5ZM12.25 13.5C12.8023 13.5 13.25 13.0523 13.25 12.5C13.25 11.9477 12.8023 11.5 12.25 11.5C11.6977 11.5 11.25 11.9477 11.25 12.5C11.25 13.0523 11.6977 13.5 12.25 13.5Z" fill="#3785F7"/>
<path d="M13.25 12.5C13.25 13.0523 12.8023 13.5 12.25 13.5V15.5C13.9069 15.5 15.25 14.1569 15.25 12.5H13.25ZM12.25 11.5C12.8023 11.5 13.25 11.9477 13.25 12.5H15.25C15.25 10.8431 13.9069 9.5 12.25 9.5V11.5ZM11.25 12.5C11.25 11.9477 11.6977 11.5 12.25 11.5V9.5C10.5931 9.5 9.25 10.8431 9.25 12.5H11.25ZM12.25 13.5C11.6977 13.5 11.25 13.0523 11.25 12.5H9.25C9.25 14.1569 10.5931 15.5 12.25 15.5V13.5ZM12.25 12.5V14.5C13.3546 14.5 14.25 13.6046 14.25 12.5H12.25ZM12.25 12.5H14.25C14.25 11.3954 13.3546 10.5 12.25 10.5V12.5ZM12.25 12.5V10.5C11.1454 10.5 10.25 11.3954 10.25 12.5H12.25ZM12.25 12.5H10.25C10.25 13.6046 11.1454 14.5 12.25 14.5V12.5Z" fill="white" mask="url(#path-6-inside-2)"/>
<mask id="path-8-inside-3" fill="white">
<path fill-rule="evenodd" clip-rule="evenodd" d="M19.25 14.5C20.3546 14.5 21.25 13.6046 21.25 12.5C21.25 11.3954 20.3546 10.5 19.25 10.5C18.1454 10.5 17.25 11.3954 17.25 12.5C17.25 13.6046 18.1454 14.5 19.25 14.5ZM19.25 13.5C19.8023 13.5 20.25 13.0523 20.25 12.5C20.25 11.9477 19.8023 11.5 19.25 11.5C18.6977 11.5 18.25 11.9477 18.25 12.5C18.25 13.0523 18.6977 13.5 19.25 13.5Z"/>
</mask>
<path fill-rule="evenodd" clip-rule="evenodd" d="M19.25 14.5C20.3546 14.5 21.25 13.6046 21.25 12.5C21.25 11.3954 20.3546 10.5 19.25 10.5C18.1454 10.5 17.25 11.3954 17.25 12.5C17.25 13.6046 18.1454 14.5 19.25 14.5ZM19.25 13.5C19.8023 13.5 20.25 13.0523 20.25 12.5C20.25 11.9477 19.8023 11.5 19.25 11.5C18.6977 11.5 18.25 11.9477 18.25 12.5C18.25 13.0523 18.6977 13.5 19.25 13.5Z" fill="#3785F7"/>
<path d="M20.25 12.5C20.25 13.0523 19.8023 13.5 19.25 13.5V15.5C20.9069 15.5 22.25 14.1569 22.25 12.5H20.25ZM19.25 11.5C19.8023 11.5 20.25 11.9477 20.25 12.5H22.25C22.25 10.8431 20.9069 9.5 19.25 9.5V11.5ZM18.25 12.5C18.25 11.9477 18.6977 11.5 19.25 11.5V9.5C17.5931 9.5 16.25 10.8431 16.25 12.5H18.25ZM19.25 13.5C18.6977 13.5 18.25 13.0523 18.25 12.5H16.25C16.25 14.1569 17.5931 15.5 19.25 15.5V13.5ZM19.25 12.5V14.5C20.3546 14.5 21.25 13.6046 21.25 12.5H19.25ZM19.25 12.5H21.25C21.25 11.3954 20.3546 10.5 19.25 10.5V12.5ZM19.25 12.5V10.5C18.1454 10.5 17.25 11.3954 17.25 12.5H19.25ZM19.25 12.5H17.25C17.25 13.6046 18.1454 14.5 19.25 14.5V12.5Z" fill="white" mask="url(#path-8-inside-3)"/>
</svg>
