<?xml version="1.0" encoding="UTF-8"?>
<svg width="13px" height="14px" viewBox="0 0 13 14" version="1.1" xmlns="http://www.w3.org/2000/svg" xmlns:xlink="http://www.w3.org/1999/xlink">
    <title>Hand</title>
    <g id="Page-1" stroke="none" stroke-width="1" fill="none" fill-rule="evenodd">
        <g id="A0" transform="translate(-797.000000, -1446.000000)" fill="#000000">
            <g id="Hand" transform="translate(797.000000, 1446.000000)">
                <path d="M4.56066,2 C4.8368,2 5.0607,2.22386 5.0607,2.5 L5.0607,6.5 L6.0607,6.5 L6.0607,2.5 L6.0607,1.5 C6.0607,1.22386 6.2845,1 6.5607,1 C6.8368,1 7.0607,1.22386 7.0607,1.5 L7.0607,2.5 L7.0607,6.5 L8.0607,6.5 L8.0607,2.5 C8.0607,2.22386 8.2845,2 8.5607,2 C8.8368,2 9.0607,2.22386 9.0607,2.5 L9.0607,3.5 L9.0607,6.5 L10.0607,6.5 L10.0607,3.5 C10.0607,3.22386 10.2845,3 10.5607,3 C10.8368,3 11.0607,3.22386 11.0607,3.5 L11.0607,6.5 L11.0607,9 C11.0607,11.2091 9.2698,13 7.0607,13 C5.9313,13 4.85592,12.5171 4.10564,11.673 L1.43436,8.6678 L1.4246,8.6568 L1.41421,8.6464 L1.16421,8.3964 C0.94526,8.1775 0.94526,7.8225 1.16421,7.6036 C1.38317,7.3846 1.73816,7.3846 1.95711,7.6036 L2.92984,8.5763 C3.34714,8.9936 4.06066,8.698 4.06066,8.1079 L4.06066,6.5 L4.06066,5.5 L4.06066,2.5 C4.06066,2.22386 4.28452,2 4.56066,2 Z M10.0081,2.10504 C10.1791,2.03726 10.3655,2 10.5607,2 C11.3891,2 12.0607,2.67157 12.0607,3.5 L12.0607,6.5 L12.0607,9 C12.0607,11.7614 9.8221,14 7.0607,14 C5.6457,14 4.29828,13.3949 3.35823,12.3374 L0.69672,9.3432 L0.45711,9.1036 C-0.15237,8.4941 -0.15237,7.5059 0.45711,6.8964 C1.06658,6.287 2.05474,6.287 2.66421,6.8964 L3.06066,7.2929 L3.06066,6.5 L3.06066,5.5 L3.06066,2.5 C3.06066,1.67157 3.73223,1 4.56066,1 C4.75578,1 4.94221,1.03726 5.1132,1.10504 C5.2866,0.46823 5.8689,0 6.5607,0 C7.2524,0 7.8348,0.46823 8.0081,1.10504 C8.1791,1.03726 8.3655,1 8.5607,1 C9.2524,1 9.8348,1.46823 10.0081,2.10504 Z" id="Shape"></path>
            </g>
        </g>
    </g>
</svg>