<svg width="24" height="24" viewBox="0 0 24 24" fill="none" xmlns="http://www.w3.org/2000/svg">
<path fill-rule="evenodd" clip-rule="evenodd" d="M9.56066 7C9.8368 7 10.0607 7.22386 10.0607 7.5V11.5H11.0607V7.5V6.5C11.0607 6.22386 11.2845 6 11.5607 6C11.8368 6 12.0607 6.22386 12.0607 6.5V7.5V11.5H13.0607V7.5C13.0607 7.22386 13.2845 7 13.5607 7C13.8368 7 14.0607 7.22386 14.0607 7.5V8.5V11.5H15.0607V8.5C15.0607 8.22386 15.2845 8 15.5607 8C15.8368 8 16.0607 8.22386 16.0607 8.5V11.5V14C16.0607 16.2091 14.2698 18 12.0607 18C10.9313 18 9.85592 17.5171 9.10564 16.673L6.43436 13.6678L6.4246 13.6568L6.41421 13.6464L6.16421 13.3964C5.94526 13.1775 5.94526 12.8225 6.16421 12.6036C6.38317 12.3846 6.73816 12.3846 6.95711 12.6036L7.92984 13.5763C8.34714 13.9936 9.06066 13.698 9.06066 13.1079V11.5V10.5V7.5C9.06066 7.22386 9.28452 7 9.56066 7ZM15.0081 7.10504C15.1791 7.03726 15.3655 7 15.5607 7C16.3891 7 17.0607 7.67157 17.0607 8.5V11.5V14C17.0607 16.7614 14.8221 19 12.0607 19C10.6457 19 9.29828 18.3949 8.35823 17.3374L5.69672 14.3432L5.45711 14.1036C4.84763 13.4941 4.84763 12.5059 5.45711 11.8964C6.06658 11.287 7.05474 11.287 7.66421 11.8964L8.06066 12.2929V11.5V10.5V7.5C8.06066 6.67157 8.73223 6 9.56066 6C9.75578 6 9.94221 6.03726 10.1132 6.10504C10.2866 5.46823 10.8689 5 11.5607 5C12.2524 5 12.8348 5.46823 13.0081 6.10504C13.1791 6.03726 13.3655 6 13.5607 6C14.2524 6 14.8348 6.46823 15.0081 7.10504Z" fill="black"/>
</svg>
