<?xml version="1.0" encoding="UTF-8"?>
<svg width="24px" height="24px" viewBox="0 0 24 24" version="1.1" xmlns="http://www.w3.org/2000/svg" xmlns:xlink="http://www.w3.org/1999/xlink">
    <title>Hand_Square</title>
    <g id="Page-1" stroke="none" stroke-width="1" fill="none" fill-rule="evenodd">
        <g id="A0" transform="translate(-792.000000, -1441.000000)">
            <g id="Hand_Square" transform="translate(792.000000, 1441.000000)">
                <rect id="Rectangle" fill="#3785F7" fill-rule="nonzero" x="0" y="0" width="24" height="24" rx="4"></rect>
                <path d="M9.56066,7 C9.8368,7 10.0607,7.22386 10.0607,7.5 L10.0607,11.5 L11.0607,11.5 L11.0607,7.5 L11.0607,6.5 C11.0607,6.22386 11.2845,6 11.5607,6 C11.8368,6 12.0607,6.22386 12.0607,6.5 L12.0607,7.5 L12.0607,11.5 L13.0607,11.5 L13.0607,7.5 C13.0607,7.22386 13.2845,7 13.5607,7 C13.8368,7 14.0607,7.22386 14.0607,7.5 L14.0607,8.5 L14.0607,11.5 L15.0607,11.5 L15.0607,8.5 C15.0607,8.22386 15.2845,8 15.5607,8 C15.8368,8 16.0607,8.22386 16.0607,8.5 L16.0607,11.5 L16.0607,14 C16.0607,16.2091 14.2698,18 12.0607,18 C10.9313,18 9.85592,17.5171 9.10564,16.673 L6.43436,13.6678 L6.4246,13.6568 L6.41421,13.6464 L6.16421,13.3964 C5.94526,13.1775 5.94526,12.8225 6.16421,12.6036 C6.38317,12.3846 6.73816,12.3846 6.95711,12.6036 L7.92984,13.5763 C8.34714,13.9936 9.06066,13.698 9.06066,13.1079 L9.06066,11.5 L9.06066,10.5 L9.06066,7.5 C9.06066,7.22386 9.28452,7 9.56066,7 Z M15.0081,7.10504 C15.1791,7.03726 15.3655,7 15.5607,7 C16.3891,7 17.0607,7.67157 17.0607,8.5 L17.0607,11.5 L17.0607,14 C17.0607,16.7614 14.8221,19 12.0607,19 C10.6457,19 9.29828,18.3949 8.35823,17.3374 L5.69672,14.3432 L5.45711,14.1036 C4.84763,13.4941 4.84763,12.5059 5.45711,11.8964 C6.06658,11.287 7.05474,11.287 7.66421,11.8964 L8.06066,12.2929 L8.06066,11.5 L8.06066,10.5 L8.06066,7.5 C8.06066,6.67157 8.73223,6 9.56066,6 C9.75578,6 9.94221,6.03726 10.1132,6.10504 C10.2866,5.46823 10.8689,5 11.5607,5 C12.2524,5 12.8348,5.46823 13.0081,6.10504 C13.1791,6.03726 13.3655,6 13.5607,6 C14.2524,6 14.8348,6.46823 15.0081,7.10504 Z" id="Shape" fill="#FFFFFF"></path>
            </g>
        </g>
    </g>
</svg>