<svg width="24" height="24" viewBox="0 0 24 24" fill="none" xmlns="http://www.w3.org/2000/svg">
<path d="M7 10.999C7 10.4467 7.44772 9.99902 8 9.99902H15.3333C15.8856 9.99902 16.3333 10.4467 16.3333 10.999V16.999C16.3333 17.5513 15.8856 17.999 15.3333 17.999H8C7.44771 17.999 7 17.5513 7 16.999V10.999Z" fill="black"/>
<path d="M9.44444 9.2C9.44444 8.02179 10.4394 7.06667 11.6667 7.06667C12.894 7.06667 13.8889 8.02179 13.8889 9.2V10H15V9.2C15 7.43269 13.5076 6 11.6667 6C9.82572 6 8.33333 7.43269 8.33333 9.2V10H9.44444V9.2Z" fill="#151515"/>
</svg>
