<svg width="24" height="24" viewBox="0 0 24 24" fill="none" xmlns="http://www.w3.org/2000/svg">
<path fill-rule="evenodd" clip-rule="evenodd" d="M11.9999 9.57143C11.3424 9.57143 10.8095 10.0831 10.8095 10.7143V11.1423H13.1904V10.7143C13.1904 10.0831 12.6574 9.57143 11.9999 9.57143ZM13.7856 11.1423V10.7143C13.7856 9.76751 12.9862 9 11.9999 9C11.0137 9 10.2142 9.76751 10.2142 10.7143V11.1423H10.0357C9.73985 11.1423 9.5 11.3822 9.5 11.678V14.8923C9.5 15.1882 9.73985 15.428 10.0357 15.428H13.9643C14.2602 15.428 14.5 15.1882 14.5 14.8923V11.678C14.5 11.3822 14.2602 11.1423 13.9643 11.1423H13.7856Z" fill="black"/>
</svg>
