<?xml version="1.0" encoding="UTF-8"?>
<svg width="6px" height="7px" viewBox="0 0 6 7" version="1.1" xmlns="http://www.w3.org/2000/svg" xmlns:xlink="http://www.w3.org/1999/xlink">
    <title>Lock_Small</title>
    <g id="Page-1" stroke="none" stroke-width="1" fill="none" fill-rule="evenodd">
        <g id="A0" transform="translate(-801.000000, -1450.000000)" fill="#000000">
            <g id="Lock_Small" transform="translate(801.000000, 1450.000000)">
                <path d="M2.9999,0.57143 C2.3424,0.57143 1.8095,1.0831 1.8095,1.7143 L1.8095,2.1423 L4.1904,2.1423 L4.1904,1.7143 C4.1904,1.0831 3.6574,0.57143 2.9999,0.57143 Z M4.7856,2.1423 L4.7856,1.7143 C4.7856,0.76751 3.9862,0 2.9999,0 C2.0137,0 1.2142,0.76751 1.2142,1.7143 L1.2142,2.1423 L1.0357,2.1423 C0.73985,2.1423 0.5,2.3822 0.5,2.678 L0.5,5.8923 C0.5,6.1882 0.73985,6.428 1.0357,6.428 L4.9643,6.428 C5.2602,6.428 5.5,6.1882 5.5,5.8923 L5.5,2.678 C5.5,2.3822 5.2602,2.1423 4.9643,2.1423 L4.7856,2.1423 Z" id="Shape"></path>
            </g>
        </g>
    </g>
</svg>