<?xml version="1.0" encoding="UTF-8"?>
<svg width="10px" height="12px" viewBox="0 0 10 12" version="1.1" xmlns="http://www.w3.org/2000/svg" xmlns:xlink="http://www.w3.org/1999/xlink">
    <title>Lock</title>
    <g id="Page-1" stroke="none" stroke-width="1" fill="none" fill-rule="evenodd">
        <g id="A0" transform="translate(-799.000000, -1447.000000)" fill-rule="nonzero">
            <g id="Lock" transform="translate(799.000000, 1447.000000)">
                <path d="M0,4.999 C0,4.4467 0.44772,3.99902 1,3.99902 L8.3333,3.99902 C8.8856,3.99902 9.3333,4.4467 9.3333,4.999 L9.3333,10.999 C9.3333,11.5513 8.8856,11.999 8.3333,11.999 L1,11.999 C0.44771,11.999 0,11.5513 0,10.999 L0,4.999 Z" id="Path" fill="#000000"></path>
                <path d="M2.44444,3.2 C2.44444,2.02179 3.4394,1.06667 4.6667,1.06667 C5.894,1.06667 6.8889,2.02179 6.8889,3.2 L6.8889,4 L8,4 L8,3.2 C8,1.43269 6.5076,0 4.6667,0 C2.82572,0 1.33333,1.43269 1.33333,3.2 L1.33333,4 L2.44444,4 L2.44444,3.2 Z" id="Path" fill="#151515"></path>
            </g>
        </g>
    </g>
</svg>