<?xml version="1.0" encoding="UTF-8"?>
<svg width="13px" height="14px" viewBox="0 0 13 14" version="1.1" xmlns="http://www.w3.org/2000/svg" xmlns:xlink="http://www.w3.org/1999/xlink">
    <title>Search</title>
    <g id="Page-1" stroke="none" stroke-width="1" fill="none" fill-rule="evenodd">
        <g id="A0" transform="translate(-798.000000, -1446.000000)" fill="#000000">
            <g id="Search" transform="translate(798.000000, 1446.000000)">
                <path d="M9,5.5 C9,7.7091 7.2091,9.5 5,9.5 C2.79086,9.5 1,7.7091 1,5.5 C1,3.29086 2.79086,1.5 5,1.5 C7.2091,1.5 9,3.29086 9,5.5 Z M7.7682,9.6645 C6.9756,10.1923 6.0237,10.5 5,10.5 C2.23858,10.5 -8.8817842e-16,8.2614 -8.8817842e-16,5.5 C-8.8817842e-16,2.73858 2.23858,0.5 5,0.5 C7.7614,0.5 10,2.73858 10,5.5 C10,6.7628 9.5319,7.9162 8.7597,8.7962 C8.8585,8.8326 8.9511,8.8904 9.0303,8.9697 L12.0303,11.9697 C12.3232,12.2626 12.3232,12.7374 12.0303,13.0303 C11.7374,13.3232 11.2626,13.3232 10.9697,13.0303 L7.9697,10.0303 C7.8653,9.926 7.7982,9.7985 7.7682,9.6645 Z" id="Shape"></path>
            </g>
        </g>
    </g>
</svg>