<svg width="24" height="24" viewBox="0 0 24 24" fill="none" xmlns="http://www.w3.org/2000/svg">
<path fill-rule="evenodd" clip-rule="evenodd" d="M15 10.5C15 12.7091 13.2091 14.5 11 14.5C8.79086 14.5 7 12.7091 7 10.5C7 8.29086 8.79086 6.5 11 6.5C13.2091 6.5 15 8.29086 15 10.5ZM13.7682 14.6645C12.9756 15.1923 12.0237 15.5 11 15.5C8.23858 15.5 6 13.2614 6 10.5C6 7.73858 8.23858 5.5 11 5.5C13.7614 5.5 16 7.73858 16 10.5C16 11.7628 15.5319 12.9162 14.7597 13.7962C14.8585 13.8326 14.9511 13.8904 15.0303 13.9697L18.0303 16.9697C18.3232 17.2626 18.3232 17.7374 18.0303 18.0303C17.7374 18.3232 17.2626 18.3232 16.9697 18.0303L13.9697 15.0303C13.8653 14.926 13.7982 14.7985 13.7682 14.6645Z" fill="black"/>
</svg>
