<?xml version="1.0" encoding="UTF-8"?>
<svg width="12px" height="12px" viewBox="0 0 12 12" version="1.1" xmlns="http://www.w3.org/2000/svg" xmlns:xlink="http://www.w3.org/1999/xlink">
    <title>Setting</title>
    <g id="Page-1" stroke="none" stroke-width="1" fill="none" fill-rule="evenodd">
        <g id="A0" transform="translate(-798.000000, -1447.000000)" fill="#000000">
            <g id="Setting" transform="translate(798.000000, 1447.000000)">
                <path d="M7.7538,0.5 C7.7538,0.22386 7.53,0 7.2538,0 L4.7473,0 C4.4712,0 4.2473,0.22386 4.2473,0.5 L4.2473,0.79377 C4.2473,1.00695 4.1112,1.19453 3.91485,1.27756 C3.53669,1.43748 3.18153,1.63956 2.85557,1.87773 C2.68749,2.00054 2.4631,2.02312 2.28182,1.92079 L1.99063,1.75641 C1.75346,1.62252 1.45276,1.70307 1.31429,1.93759 L0.06958,4.0456 C-0.07277,4.2866 0.01054,4.5976 0.25432,4.7352 L0.51692,4.8834 C0.70347,4.9887 0.79973,5.201 0.77503,5.4138 C0.7527,5.6062 0.74123,5.8018 0.74123,6 C0.74123,6.1982 0.7527,6.3938 0.77502,6.5862 C0.79972,6.799 0.70346,7.0112 0.51691,7.1165 L0.25429,7.2648 C0.0105,7.4024 -0.0728,7.7134 0.06954,7.9544 L1.31425,10.0624 C1.45273,10.2969 1.75343,10.3775 1.99059,10.2436 L2.28176,10.0792 C2.46304,9.9769 2.68743,9.9995 2.85551,10.1223 C3.18162,10.3605 3.53694,10.5627 3.91528,10.7227 C4.1117,10.8057 4.2478,10.9933 4.2478,11.2065 L4.2478,11.5001 C4.2478,11.7762 4.4717,12.0001 4.7478,12.0001 L7.2543,12.0001 C7.5305,12.0001 7.7543,11.7762 7.7543,11.5001 L7.7543,11.2064 C7.7543,10.9932 7.8905,10.8056 8.0868,10.7226 C8.4652,10.5626 8.8205,10.3605 9.1466,10.1222 C9.3147,9.9993 9.5391,9.9768 9.7204,10.0791 L10.0117,10.2435 C10.2489,10.3774 10.5496,10.2969 10.6881,10.0624 L11.9328,7.9544 C12.0751,7.7133 11.9918,7.4024 11.748,7.2648 L11.4851,7.1163 C11.2986,7.011 11.2023,6.7988 11.227,6.586 C11.2493,6.3937 11.2608,6.1982 11.2608,6 C11.2608,5.8018 11.2493,5.6063 11.227,5.4139 C11.2023,5.2012 11.2986,4.9889 11.4851,4.8836 L11.748,4.7352 C11.9918,4.5976 12.0751,4.2867 11.9327,4.0456 L10.688,1.93762 C10.5496,1.70311 10.2489,1.62255 10.0117,1.75644 L9.7204,1.92091 C9.5391,2.02324 9.3147,2.00066 9.1466,1.87784 C8.8204,1.63946 8.4649,1.43724 8.0864,1.27724 C7.89,1.19423 7.7538,1.00663 7.7538,0.79342 L7.7538,0.5 Z M6.065,8 C7.2047,8 8.1287,7.1046 8.1287,6 C8.1287,4.8954 7.2047,4 6.065,4 C4.9253,4 4.0014,4.8954 4.0014,6 C4.0014,7.1046 4.9253,8 6.065,8 Z" id="Shape"></path>
            </g>
        </g>
    </g>
</svg>