<svg width="24" height="24" viewBox="0 0 24 24" fill="none" xmlns="http://www.w3.org/2000/svg">
<path fill-rule="evenodd" clip-rule="evenodd" d="M13.7538 6.5C13.7538 6.22386 13.53 6 13.2538 6H10.7473C10.4712 6 10.2473 6.22386 10.2473 6.5V6.79377C10.2473 7.00695 10.1112 7.19453 9.91485 7.27756C9.53669 7.43748 9.18153 7.63956 8.85557 7.87773C8.68749 8.00054 8.4631 8.02312 8.28182 7.92079L7.99063 7.75641C7.75346 7.62252 7.45276 7.70307 7.31429 7.93759L6.06958 10.0456C5.92723 10.2866 6.01054 10.5976 6.25432 10.7352L6.51692 10.8834C6.70347 10.9887 6.79973 11.201 6.77503 11.4138C6.7527 11.6062 6.74123 11.8018 6.74123 12C6.74123 12.1982 6.7527 12.3938 6.77502 12.5862C6.79972 12.799 6.70346 13.0112 6.51691 13.1165L6.25429 13.2648C6.0105 13.4024 5.9272 13.7134 6.06954 13.9544L7.31425 16.0624C7.45273 16.2969 7.75343 16.3775 7.99059 16.2436L8.28176 16.0792C8.46304 15.9769 8.68743 15.9995 8.85551 16.1223C9.18162 16.3605 9.53694 16.5627 9.91528 16.7227C10.1117 16.8057 10.2478 16.9933 10.2478 17.2065V17.5001C10.2478 17.7762 10.4717 18.0001 10.7478 18.0001H13.2543C13.5305 18.0001 13.7543 17.7762 13.7543 17.5001V17.2064C13.7543 16.9932 13.8905 16.8056 14.0868 16.7226C14.4652 16.5626 14.8205 16.3605 15.1466 16.1222C15.3147 15.9993 15.5391 15.9768 15.7204 16.0791L16.0117 16.2435C16.2489 16.3774 16.5496 16.2969 16.6881 16.0624L17.9328 13.9544C18.0751 13.7133 17.9918 13.4024 17.748 13.2648L17.4851 13.1163C17.2986 13.011 17.2023 12.7988 17.227 12.586C17.2493 12.3937 17.2608 12.1982 17.2608 12C17.2608 11.8018 17.2493 11.6063 17.227 11.4139C17.2023 11.2012 17.2986 10.9889 17.4851 10.8836L17.748 10.7352C17.9918 10.5976 18.0751 10.2867 17.9327 10.0456L16.688 7.93762C16.5496 7.70311 16.2489 7.62255 16.0117 7.75644L15.7204 7.92091C15.5391 8.02324 15.3147 8.00066 15.1466 7.87784C14.8204 7.63946 14.4649 7.43724 14.0864 7.27724C13.89 7.19423 13.7538 7.00663 13.7538 6.79342V6.5ZM12.065 14C13.2047 14 14.1287 13.1046 14.1287 12C14.1287 10.8954 13.2047 10 12.065 10C10.9253 10 10.0014 10.8954 10.0014 12C10.0014 13.1046 10.9253 14 12.065 14Z" fill="black"/>
</svg>
