<?xml version="1.0" encoding="UTF-8"?>
<svg width="14px" height="12px" viewBox="0 0 14 12" version="1.1" xmlns="http://www.w3.org/2000/svg" xmlns:xlink="http://www.w3.org/1999/xlink">
    <title>Unlock</title>
    <g id="Page-1" stroke="none" stroke-width="1" fill="none" fill-rule="evenodd">
        <g id="A0" transform="translate(-799.000000, -1447.000000)" fill-rule="nonzero">
            <g id="Unlock" transform="translate(799.000000, 1447.000000)">
                <path d="M0,4.999 C0,4.4467 0.44772,3.99902 1,3.99902 L8.3333,3.99902 C8.8856,3.99902 9.3333,4.4467 9.3333,4.999 L9.3333,10.999 C9.3333,11.5513 8.8856,11.999 8.3333,11.999 L1,11.999 C0.44771,11.999 0,11.5513 0,10.999 L0,4.999 Z" id="Path" fill="#000000"></path>
                <path d="M8.1105,3.2 C8.1105,2.02179 9.1054,1.06667 10.3327,1.06667 C11.56,1.06667 12.5549,2.02179 12.5549,3.2 L13.666,3.2 C13.666,1.43269 12.1736,0 10.3327,0 C8.4917,0 6.9993,1.43269 6.9993,3.2 L6.9993,4 L8.1105,4 L8.1105,3.2 Z" id="Path" fill="#151515"></path>
            </g>
        </g>
    </g>
</svg>