<?xml version="1.0" encoding="UTF-8"?>
<svg width="8px" height="7px" viewBox="0 0 8 7" version="1.1" xmlns="http://www.w3.org/2000/svg" xmlns:xlink="http://www.w3.org/1999/xlink">
    <title>Unlock_Small</title>
    <g id="Page-1" stroke="none" stroke-width="1" fill="none" fill-rule="evenodd">
        <g id="A0" transform="translate(-801.000000, -1450.000000)" fill="#000000" fill-rule="nonzero">
            <g id="Unlock_Small" transform="translate(801.000000, 1450.000000)">
                <path d="M0.5,2.678 C0.5,2.3822 0.73985,2.1423 1.0357,2.1423 L4.9643,2.1423 C5.2602,2.1423 5.5,2.3822 5.5,2.678 L5.5,5.8923 C5.5,6.1882 5.2602,6.428 4.9643,6.428 L1.0357,6.428 C0.73985,6.428 0.5,6.1882 0.5,5.8923 L0.5,2.678 Z" id="Path"></path>
                <path d="M4.5238,1.7143 C4.5238,1.0831 5.0568,0.57143 5.7143,0.57143 C6.3718,0.57143 6.9048,1.0831 6.9048,1.7143 L7.5,1.7143 C7.5,0.76751 6.7005,0 5.7143,0 C4.7281,0 3.9286,0.76751 3.9286,1.7143 L3.9286,2.1429 L4.5238,2.1429 L4.5238,1.7143 Z" id="Path"></path>
            </g>
        </g>
    </g>
</svg>