<svg width="24" height="24" viewBox="0 0 24 24" fill="none" xmlns="http://www.w3.org/2000/svg">
<path d="M7 10.999C7 10.4467 7.44772 9.99902 8 9.99902H15.3333C15.8856 9.99902 16.3333 10.4467 16.3333 10.999V16.999C16.3333 17.5513 15.8856 17.999 15.3333 17.999H8C7.44771 17.999 7 17.5513 7 16.999V10.999Z" fill="black"/>
<path d="M15.1105 9.2C15.1105 8.02179 16.1054 7.06667 17.3327 7.06667C18.56 7.06667 19.5549 8.02179 19.5549 9.2H20.666C20.666 7.43269 19.1736 6 17.3327 6C15.4917 6 13.9993 7.43269 13.9993 9.2V10H15.1105V9.2Z" fill="#151515"/>
</svg>
