<svg width="24" height="24" viewBox="0 0 24 24" fill="none" xmlns="http://www.w3.org/2000/svg">
<path d="M9.5 11.678C9.5 11.3822 9.73985 11.1423 10.0357 11.1423H13.9643C14.2602 11.1423 14.5 11.3822 14.5 11.678V14.8923C14.5 15.1882 14.2602 15.428 13.9643 15.428H10.0357C9.73985 15.428 9.5 15.1882 9.5 14.8923V11.678Z" fill="black"/>
<path d="M13.5238 10.7143C13.5238 10.0831 14.0568 9.57143 14.7143 9.57143C15.3718 9.57143 15.9048 10.0831 15.9048 10.7143H16.5C16.5 9.76751 15.7005 9 14.7143 9C13.7281 9 12.9286 9.76751 12.9286 10.7143V11.1429H13.5238V10.7143Z" fill="black"/>
</svg>
